<?xml version="1.0" encoding="UTF-8"?>
<!-- Macula full logo, MCP badge (light theme) — same mesh as the
     macula-*-sdk, macula-station, and macula-cli logos; badge glyph is
     a plug (the universal "connector/adapter" symbol MCP servers use),
     matching what this server actually is: the thing an agent harness
     plugs into to reach the mesh. -->
<svg xmlns="http://www.w3.org/2000/svg" viewBox="0 0 240 88" width="240" height="88">
  <!-- Icon -->
  <g transform="translate(4, 12) scale(0.64)">
    <!-- Subtle grid -->
    <g stroke="#1E3A5F" stroke-width="0.5" opacity="0.1">
      <line x1="0" y1="25" x2="100" y2="25"/>
      <line x1="0" y1="50" x2="100" y2="50"/>
      <line x1="0" y1="75" x2="100" y2="75"/>
      <line x1="25" y1="0" x2="25" y2="100"/>
      <line x1="50" y1="0" x2="50" y2="100"/>
      <line x1="75" y1="0" x2="75" y2="100"/>
    </g>

    <!-- Irregular mesh connections -->
    <g stroke="#0EA5E9" stroke-width="1.5" fill="none">
      <line x1="22" y1="20" x2="50" y2="32"/>
      <line x1="50" y1="32" x2="78" y2="18"/>
      <line x1="22" y1="20" x2="15" y2="52"/>
      <line x1="78" y1="18" x2="85" y2="45"/>
      <line x1="15" y1="52" x2="35" y2="55"/>
      <line x1="35" y1="55" x2="50" y2="50"/>
      <line x1="50" y1="50" x2="68" y2="48"/>
      <line x1="68" y1="48" x2="85" y2="45"/>
      <line x1="15" y1="52" x2="28" y2="80"/>
      <line x1="35" y1="55" x2="50" y2="78"/>
      <line x1="50" y1="50" x2="50" y2="78"/>
      <line x1="68" y1="48" x2="72" y2="75"/>
      <line x1="85" y1="45" x2="72" y2="75"/>
      <line x1="28" y1="80" x2="50" y2="78"/>
      <line x1="50" y1="78" x2="72" y2="75"/>
      <line x1="22" y1="20" x2="35" y2="55" stroke-dasharray="3,2" opacity="0.6"/>
      <line x1="78" y1="18" x2="68" y2="48" stroke-dasharray="3,2" opacity="0.6"/>
      <line x1="50" y1="32" x2="50" y2="50" stroke-dasharray="3,2" opacity="0.6"/>
    </g>

    <!-- Orange accents -->
    <g stroke="#F97316" stroke-width="2" fill="none" opacity="0.9">
      <line x1="35" y1="55" x2="68" y2="48"/>
      <line x1="50" y1="32" x2="35" y2="55" stroke-dasharray="4,3"/>
    </g>

    <!-- Primary nodes -->
    <g stroke="#0EA5E9" stroke-width="2" fill="#0C1929">
      <circle cx="22" cy="20" r="4"/>
      <circle cx="78" cy="18" r="4"/>
      <circle cx="15" cy="52" r="3"/>
      <circle cx="85" cy="45" r="3"/>
      <circle cx="28" cy="80" r="4"/>
      <circle cx="72" cy="75" r="4"/>
    </g>

    <!-- Hub nodes - white -->
    <g stroke="#0EA5E9" stroke-width="2" fill="white">
      <circle cx="50" cy="32" r="4"/>
      <circle cx="50" cy="78" r="4"/>
    </g>

    <!-- Central hub -->
    <circle cx="50" cy="50" r="7" stroke="#0EA5E9" stroke-width="2" fill="#0C1929"/>
    <circle cx="50" cy="50" r="3.5" fill="#0EA5E9"/>

    <!-- Secondary nodes -->
    <g stroke="#0EA5E9" stroke-width="1.5" fill="#0C1929">
      <circle cx="35" cy="55" r="3"/>
      <circle cx="68" cy="48" r="3"/>
    </g>
    <g fill="#F97316">
      <circle cx="35" cy="55" r="1.5"/>
      <circle cx="68" cy="48" r="1.5"/>
    </g>
  </g>

  <!-- Wordmark -->
  <text x="76" y="46"
        font-family="'JetBrains Mono', 'Fira Code', 'SF Mono', Consolas, monospace"
        font-size="30"
        font-weight="600"
        fill="#0EA5E9"
        letter-spacing="-0.5px">MACULA</text>
  <text x="77" y="68"
        font-family="'JetBrains Mono', 'Fira Code', 'SF Mono', Consolas, monospace"
        font-size="15"
        font-weight="500"
        fill="#F97316"
        letter-spacing="3px">MCP</text>

  <!-- MCP badge: styled as a large hub node, matching the mesh's own
       vocabulary. Glyph is a plug — what this server IS, the thing an
       agent harness plugs into to reach the mesh. -->
  <circle cx="54" cy="66" r="13" fill="#F8FAFC" stroke="#0EA5E9" stroke-width="2"/>
  <g transform="translate(42, 54)" stroke="#0C1929" stroke-width="1.7" stroke-linecap="round" stroke-linejoin="round" fill="none">
    <path d="M9,10 L9,17 A3,3 0 0 0 12,20 L14,20 A3,3 0 0 0 17,17 L17,10"/>
    <line x1="11" y1="6" x2="11" y2="10"/>
    <line x1="15" y1="6" x2="15" y2="10"/>
    <line x1="13" y1="20" x2="13" y2="24"/>
  </g>
</svg>
